<svg width="247" height="211" viewBox="0 0 247 211" fill="none" xmlns="http://www.w3.org/2000/svg">
    <ellipse cx="59.989" cy="110" rx="27.9949" ry="28" fill="#E58585"/>
    <path fill-rule="evenodd" clip-rule="evenodd"
          d="M55.9897 86.3318C67.3385 88.2361 75.986 98.108 75.986 110C75.986 121.892 67.3385 131.764 55.9897 133.668C57.2903 133.886 58.6264 134 59.989 134C73.2414 134 83.9846 123.255 83.9846 110C83.9846 96.7452 73.2414 86 59.989 86C58.6264 86 57.2903 86.1136 55.9897 86.3318Z"
          fill="white" fill-opacity="0.4"/>
    <ellipse cx="121.978" cy="188" rx="8.99835" ry="9" fill="#FFB28A"/>
    <ellipse cx="121.978" cy="188" rx="7.71287" ry="7.71429" fill="white"/>
    <path fill-rule="evenodd" clip-rule="evenodd"
          d="M121.013 181.343C124.205 181.879 126.637 184.655 126.637 188C126.637 191.345 124.205 194.121 121.013 194.657C121.379 194.718 121.755 194.75 122.138 194.75C125.866 194.75 128.887 191.728 128.887 188C128.887 184.272 125.866 181.25 122.138 181.25C121.755 181.25 121.379 181.282 121.013 181.343Z"
          fill="black" fill-opacity="0.2"/>
    <ellipse cx="15.9971" cy="195" rx="15.9971" ry="16" fill="#E58585"/>
    <ellipse cx="15.9975" cy="195" rx="13.7118" ry="13.7143" fill="#FFDF8B"/>
    <path fill-rule="evenodd" clip-rule="evenodd"
          d="M13.7114 183.166C19.3856 184.118 23.7092 189.054 23.7092 195C23.7092 200.946 19.3856 205.882 13.7114 206.834C14.3618 206.943 15.0299 207 15.7114 207C22.3376 207 27.7092 201.627 27.7092 195C27.7092 188.373 22.3376 183 15.7114 183C15.0299 183 14.3618 183.057 13.7114 183.166Z"
          fill="white" fill-opacity="0.4"/>
    <ellipse cx="40.9925" cy="26" rx="11.9978" ry="12" fill="#FFB28A"/>
    <ellipse cx="40.9928" cy="26" rx="10.2838" ry="10.2857" fill="#3A3A3A"/>
    <path fill-rule="evenodd" clip-rule="evenodd"
          d="M39.7067 17.1245C43.9624 17.8387 47.2051 21.5406 47.2051 26C47.2051 30.4594 43.9624 34.1613 39.7067 34.8755C40.1945 34.9574 40.6957 35 41.2067 35C46.1764 35 50.2051 30.9706 50.2051 26C50.2051 21.0294 46.1764 17 41.2067 17C40.6957 17 40.1945 17.0426 39.7067 17.1245Z"
          fill="white" fill-opacity="0.2"/>
    <ellipse cx="186.966" cy="44" rx="43.9919" ry="44" fill="#F7F7F7"/>
    <ellipse cx="174.396" cy="56.5714" rx="18.8537" ry="18.8571" fill="#FFDF8B"/>
    <path fill-rule="evenodd" clip-rule="evenodd"
          d="M172.825 42.6335C179.831 43.8093 185.169 49.9036 185.169 57.2449C185.169 64.5862 179.831 70.6805 172.825 71.8563C173.628 71.9911 174.453 72.0612 175.294 72.0612C183.476 72.0612 190.108 65.4277 190.108 57.2449C190.108 49.0621 183.476 42.4286 175.294 42.4286C174.453 42.4286 173.628 42.4987 172.825 42.6335Z"
          fill="white" fill-opacity="0.4"/>
    <ellipse rx="7.9999" ry="7.99863" transform="matrix(-0.258775 0.965938 -0.965914 -0.258863 214.759 148.798)"
             fill="#E68585"/>
    <ellipse cx="210.462" cy="146.5" rx="2.49994" ry="2.50006" fill="#FFDF8B"/>
    <path fill-rule="evenodd" clip-rule="evenodd"
          d="M210.253 144.652C211.182 144.808 211.89 145.616 211.89 146.589C211.89 147.563 211.182 148.371 210.253 148.527C210.36 148.544 210.469 148.554 210.581 148.554C211.666 148.554 212.545 147.674 212.545 146.589C212.545 145.504 211.666 144.625 210.581 144.625C210.469 144.625 210.36 144.634 210.253 144.652Z"
          fill="white" fill-opacity="0.7"/>
    <ellipse rx="8.99989" ry="8.99846" transform="matrix(-0.258775 -0.965938 0.965914 -0.258863 235.979 167.023)"
             fill="#E68585"/>
    <circle r="3" transform="matrix(0.999977 -3.9807e-05 -3.97782e-05 1.00002 234.958 170)" fill="#FFDF8B"/>
    <path fill-rule="evenodd" clip-rule="evenodd"
          d="M234.706 167.783C235.821 167.97 236.671 168.939 236.671 170.107C236.671 171.275 235.821 172.245 234.706 172.432C234.834 172.453 234.965 172.464 235.099 172.464C236.401 172.464 237.456 171.409 237.456 170.107C237.456 168.805 236.401 167.75 235.099 167.75C234.965 167.75 234.834 167.761 234.706 167.783Z"
          fill="white" fill-opacity="0.7"/>
    <ellipse cx="211.961" cy="171" rx="9.99816" ry="10" fill="#E68585"/>
    <ellipse cx="209.105" cy="173.857" rx="4.28493" ry="4.28571" fill="#FFDF8B"/>
    <path fill-rule="evenodd" clip-rule="evenodd"
          d="M208.747 177.331C210.339 177.064 211.553 175.679 211.553 174.01C211.553 172.342 210.339 170.957 208.747 170.689C208.93 170.659 209.117 170.643 209.308 170.643C211.168 170.643 212.675 172.15 212.675 174.01C212.675 175.87 211.168 177.378 209.308 177.378C209.117 177.378 208.93 177.362 208.747 177.331Z"
          fill="white" fill-opacity="0.7"/>
</svg>
