<svg width="131" height="187" viewBox="0 0 131 187" fill="none" xmlns="http://www.w3.org/2000/svg">
    <path d="M124.512 84.6841C126.62 77.4461 127.689 69.9452 127.688 62.4062C127.688 28.1161 99.7902 0.21875 65.5 0.21875C31.2098 0.21875 3.3125 28.1161 3.3125 62.4062C3.31056 69.9452 4.37986 77.4461 6.48834 84.6841C4.65502 85.3191 3.06485 86.5091 1.93856 88.0888C0.812269 89.6686 0.205726 91.5598 0.203125 93.5V109.047C0.212675 113.173 1.58556 117.18 4.1082 120.445C6.63084 123.71 10.1618 126.049 14.1518 127.1L14.9206 139.401C15.2187 144.045 16.4574 148.579 18.5615 152.729C20.6656 156.879 23.5912 160.558 27.1606 163.543L47.0152 180.089C52.2043 184.413 58.7453 186.781 65.5 186.781C72.2547 186.781 78.7957 184.413 83.9848 180.089L103.839 163.543C107.409 160.559 110.334 156.879 112.438 152.73C114.542 148.58 115.781 144.045 116.079 139.402L116.848 127.101C120.838 126.05 124.369 123.71 126.892 120.445C129.415 117.18 130.787 113.173 130.797 109.047V93.5C130.794 91.5598 130.188 89.6686 129.061 88.0888C127.935 86.5091 126.345 85.3191 124.512 84.6841ZM65.5 6.4375C96.3605 6.4375 121.469 31.5457 121.469 62.4062C121.471 70.31 120.197 78.1622 117.696 85.6597L116.898 88.0535L114.365 62.7312C113.694 55.8182 110.468 49.4044 105.318 44.7439C100.168 40.0835 93.4652 37.5116 86.5198 37.5312H44.4802C37.5348 37.5116 30.8317 40.0835 25.682 44.7439C20.5322 49.4044 17.3061 55.8182 16.6346 62.7312L14.1024 88.0535L13.3045 85.6597C10.8032 78.1622 9.52908 70.31 9.53125 62.4062C9.53125 31.5457 34.6395 6.4375 65.5 6.4375ZM55.515 156.75L57.4156 158.175C57.9538 158.579 58.6085 158.797 59.2812 158.797H71.7188C72.3915 158.797 73.0462 158.579 73.5844 158.175L75.485 156.75L65.5 176.719L55.515 156.75ZM80.4922 93.0336C82.6517 91.3541 85.6872 90.3906 88.8203 90.3906C91.9534 90.3906 94.9889 91.3541 97.1484 93.0336L97.7477 93.5L97.1484 93.9664C94.9889 95.6459 91.9534 96.6094 88.8203 96.6094C85.6872 96.6094 82.6517 95.6459 80.4922 93.9664L79.8929 93.5L80.4922 93.0336ZM51.1087 93.5L50.5093 93.9664C48.3499 95.6459 45.3143 96.6094 42.1812 96.6094C39.0482 96.6094 36.0126 95.6459 33.8532 93.9664L33.2538 93.5L33.8532 93.0336C36.0126 91.3541 39.0482 90.3906 42.1812 90.3906C45.3143 90.3906 48.3499 91.3541 50.5093 93.0336L51.1087 93.5ZM59.0131 96.6094H71.99L74.5343 124.594H56.4673L59.0131 96.6094ZM73.542 90.3906H57.4595L48.1314 81.0625H82.8686L73.542 90.3906ZM38.9965 80.7216L42.4518 84.1769C42.3608 84.1769 42.2706 84.1719 42.1797 84.1719C37.6248 84.1719 33.3114 85.5758 30.0337 88.1247L29.4585 88.5724L24.2934 76.5209L38.9965 80.7216ZM29.7461 98.6526L30.0321 98.8753C33.3114 101.424 37.6248 102.828 42.1797 102.828C45.7786 102.858 49.321 101.932 52.4457 100.146L50.2738 124.036L22.9428 119.067L29.7461 98.6526ZM59.2812 143.617L64.1093 146.031C64.5411 146.247 65.0172 146.359 65.5 146.359C65.9828 146.359 66.4589 146.247 66.8907 146.031L71.7188 143.617L78.2659 146.891L70.6822 152.578H60.3178L52.7341 146.891L59.2812 143.617ZM69.4011 137.823L65.5 139.774L61.5989 137.823L58.0935 130.812H72.9065L69.4011 137.823ZM80.7262 124.036L78.5543 100.146C81.679 101.932 85.2214 102.858 88.8203 102.828C93.3752 102.828 97.6886 101.424 100.966 98.8753L101.252 98.6526L108.057 119.066L80.7262 124.036ZM101.542 88.5724L100.966 88.1247C97.6886 85.5758 93.3752 84.1719 88.8203 84.1719C88.7294 84.1719 88.6392 84.1761 88.5482 84.1769L92.0035 80.7216L106.707 76.5209L101.542 88.5724ZM89.9393 74.8438H41.0607L22.2121 69.4583L22.8227 63.3499C23.3449 57.9732 25.854 52.9846 29.8594 49.3598C33.8647 45.735 39.0782 43.7347 44.4802 43.75H86.5198C91.9216 43.735 97.1348 45.7354 101.14 49.3602C105.145 52.985 107.654 57.9734 108.176 63.3499L108.787 69.4583L89.9393 74.8438ZM18.8691 102.886L20.753 84.0463L24.864 93.6384L19.3289 110.243L18.8691 102.886ZM50.9769 130.484L55.1096 138.75L47.3362 142.637L29.2128 126.527L50.9769 130.484ZM83.6642 142.637L75.8908 138.75L80.0235 130.484L101.789 126.527L83.6642 142.637ZM106.136 93.6384L110.247 84.0463L112.131 102.886L111.672 110.243L106.136 93.6384ZM6.42188 109.047V93.5C6.42288 92.8751 6.61197 92.2649 6.96454 91.749C7.31711 91.233 7.81683 90.8351 8.39866 90.6071L12.6741 103.427L13.7336 120.381C11.5576 119.39 9.71184 117.795 8.4157 115.786C7.11956 113.777 6.42753 111.438 6.42188 109.047ZM31.1414 158.766C28.221 156.324 25.8274 153.313 24.1058 149.918C22.3843 146.522 21.3706 142.813 21.1265 139.013L20.3752 126.993L44.3302 148.286L60.1437 179.913C56.7836 179.096 53.6547 177.522 50.9959 175.312L31.1414 158.766ZM99.8586 158.766L80.0041 175.312C77.3453 177.522 74.2164 179.096 70.8563 179.913L86.6698 148.286L110.625 126.993L109.873 139.013C109.629 142.813 108.615 146.522 106.894 149.918C105.172 153.313 102.779 156.324 99.8586 158.766ZM124.578 109.047C124.573 111.438 123.881 113.776 122.585 115.786C121.289 117.795 119.444 119.389 117.268 120.381L118.328 103.427L122.603 90.6071C123.185 90.8354 123.684 91.2335 124.036 91.7494C124.388 92.2653 124.577 92.8753 124.578 93.5V109.047Z"
          fill="#E58585"/>
</svg>
