<svg width="25" height="24" viewBox="0 0 25 24" fill="none" xmlns="http://www.w3.org/2000/svg">
    <path fill-rule="evenodd" clip-rule="evenodd"
          d="M15.5 4.5C15.5 4.08579 15.8358 3.75 16.25 3.75H20C20.4142 3.75 20.75 4.08579 20.75 4.5V8.25C20.75 8.66421 20.4142 9 20 9C19.5858 9 19.25 8.66421 19.25 8.25V5.25H16.25C15.8358 5.25 15.5 4.91421 15.5 4.5Z"
          fill="white"/>
    <path fill-rule="evenodd" clip-rule="evenodd"
          d="M5 15C5.41421 15 5.75 15.3358 5.75 15.75V18.75H8.75C9.16421 18.75 9.5 19.0858 9.5 19.5C9.5 19.9142 9.16421 20.25 8.75 20.25H5C4.58579 20.25 4.25 19.9142 4.25 19.5V15.75C4.25 15.3358 4.58579 15 5 15Z"
          fill="white"/>
    <path fill-rule="evenodd" clip-rule="evenodd"
          d="M20 15C20.4142 15 20.75 15.3358 20.75 15.75V19.5C20.75 19.9142 20.4142 20.25 20 20.25H16.25C15.8358 20.25 15.5 19.9142 15.5 19.5C15.5 19.0858 15.8358 18.75 16.25 18.75H19.25V15.75C19.25 15.3358 19.5858 15 20 15Z"
          fill="white"/>
    <path fill-rule="evenodd" clip-rule="evenodd"
          d="M4.25 4.5C4.25 4.08579 4.58579 3.75 5 3.75H8.75C9.16421 3.75 9.5 4.08579 9.5 4.5C9.5 4.91421 9.16421 5.25 8.75 5.25H5.75V8.25C5.75 8.66421 5.41421 9 5 9C4.58579 9 4.25 8.66421 4.25 8.25V4.5Z"
          fill="white"/>
</svg>
