<svg width="80" height="80" viewBox="0 0 80 80" fill="none" xmlns="http://www.w3.org/2000/svg">
    <path fill-rule="evenodd" clip-rule="evenodd"
          d="M60 76C61.1046 76 62 76.8954 62 78C62 79.1046 61.1046 80 60 80C58.8954 80 58 79.1046 58 78C58 76.8954 58.8954 76 60 76ZM40 76C41.1046 76 42 76.8954 42 78C42 79.1046 41.1046 80 40 80C38.8954 80 38 79.1046 38 78C38 76.8954 38.8954 76 40 76ZM20 76C21.1046 76 22 76.8954 22 78C22 79.1046 21.1046 80 20 80C18.8954 80 18 79.1046 18 78C18 76.8954 18.8954 76 20 76ZM40 56C42.2091 56 44 57.7909 44 60C44 62.2091 42.2091 64 40 64C37.7909 64 36 62.2091 36 60C36 57.7909 37.7909 56 40 56ZM20 56C22.2091 56 24 57.7909 24 60C24 62.2091 22.2091 64 20 64C17.7909 64 16 62.2091 16 60C16 57.7909 17.7909 56 20 56ZM60 56C62.2091 56 64 57.7909 64 60C64 62.2091 62.2091 64 60 64C57.7909 64 56 62.2091 56 60C56 57.7909 57.7909 56 60 56ZM78 58C79.1046 58 80 58.8954 80 60C80 61.1046 79.1046 62 78 62C76.8954 62 76 61.1046 76 60C76 58.8954 76.8954 58 78 58ZM2 58C3.10457 58 4 58.8954 4 60C4 61.1046 3.10457 62 2 62C0.89543 62 0 61.1046 0 60C0 58.8954 0.89543 58 2 58ZM40 32C44.4183 32 48 35.5817 48 40C48 44.4183 44.4183 48 40 48C35.5817 48 32 44.4183 32 40C32 35.5817 35.5817 32 40 32ZM60 36C62.2091 36 64 37.7909 64 40C64 42.2091 62.2091 44 60 44C57.7909 44 56 42.2091 56 40C56 37.7909 57.7909 36 60 36ZM20 36C22.2091 36 24 37.7909 24 40C24 42.2091 22.2091 44 20 44C17.7909 44 16 42.2091 16 40C16 37.7909 17.7909 36 20 36ZM78 38C79.1046 38 80 38.8954 80 40C80 41.1046 79.1046 42 78 42C76.8954 42 76 41.1046 76 40C76 38.8954 76.8954 38 78 38ZM2 38C3.10457 38 4 38.8954 4 40C4 41.1046 3.10457 42 2 42C0.89543 42 0 41.1046 0 40C0 38.8954 0.89543 38 2 38ZM40 16C42.2091 16 44 17.7909 44 20C44 22.2091 42.2091 24 40 24C37.7909 24 36 22.2091 36 20C36 17.7909 37.7909 16 40 16ZM20 16C22.2091 16 24 17.7909 24 20C24 22.2091 22.2091 24 20 24C17.7909 24 16 22.2091 16 20C16 17.7909 17.7909 16 20 16ZM60 16C62.2091 16 64 17.7909 64 20C64 22.2091 62.2091 24 60 24C57.7909 24 56 22.2091 56 20C56 17.7909 57.7909 16 60 16ZM78 18C79.1046 18 80 18.8954 80 20C80 21.1046 79.1046 22 78 22C76.8954 22 76 21.1046 76 20C76 18.8954 76.8954 18 78 18ZM2 18C3.10457 18 4 18.8954 4 20C4 21.1046 3.10457 22 2 22C0.89543 22 0 21.1046 0 20C0 18.8954 0.89543 18 2 18ZM40 0C41.1046 0 42 0.89543 42 2C42 3.10457 41.1046 4 40 4C38.8954 4 38 3.10457 38 2C38 0.89543 38.8954 0 40 0ZM60 0C61.1046 0 62 0.89543 62 2C62 3.10457 61.1046 4 60 4C58.8954 4 58 3.10457 58 2C58 0.89543 58.8954 0 60 0ZM20 0C21.1046 0 22 0.89543 22 2C22 3.10457 21.1046 4 20 4C18.8954 4 18 3.10457 18 2C18 0.89543 18.8954 0 20 0Z"
          fill="#FFB28A"/>
</svg>
